<svg id="visual" viewBox="0 0 1280 360" width="1280" height="360" xmlns="http://www.w3.org/2000/svg" xmlns:xlink="http://www.w3.org/1999/xlink" version="1.1"><rect x="0" y="0" width="1280" height="360" fill="#fff"></rect><path d="M0 278L30.5 264.8C61 251.7 122 225.3 183 210.7C244 196 305 193 366 200.3C427 207.7 488 225.3 548.8 239.2C609.7 253 670.3 263 731.2 253.8C792 244.7 853 216.3 914 213.5C975 210.7 1036 233.3 1097 247.7C1158 262 1219 268 1249.5 271L1280 274L1280 361L1249.5 361C1219 361 1158 361 1097 361C1036 361 975 361 914 361C853 361 792 361 731.2 361C670.3 361 609.7 361 548.8 361C488 361 427 361 366 361C305 361 244 361 183 361C122 361 61 361 30.5 361L0 361Z" fill="#228B22" stroke-linecap="round" stroke-linejoin="miter"></path></svg>